<svg width="175" height="88" viewBox="0 0 175 88" fill="none" xmlns="http://www.w3.org/2000/svg">
<g clip-path="url(#clip0_1_2858)">
<path d="M85.6156 174.956C110.646 174.956 133.33 168.639 149.772 158.4C166.208 148.166 176.473 133.963 176.473 118.189C176.473 102.416 166.208 88.213 149.772 77.9785C133.33 67.7395 110.646 61.4229 85.6156 61.4229C60.5857 61.4229 37.9016 67.7395 21.459 77.9785C5.02359 88.213 -5.24182 102.416 -5.24182 118.189C-5.24182 133.963 5.02359 148.166 21.459 158.4C37.9016 168.639 60.5857 174.956 85.6156 174.956Z" fill="white" stroke="black"/>
<path d="M85.6156 171.859C109.272 171.859 130.713 165.889 146.256 156.21C161.791 146.536 171.5 133.107 171.5 118.189C171.5 103.272 161.791 89.8424 146.256 80.1684C130.713 70.4898 109.272 64.5198 85.6156 64.5198C61.959 64.5198 40.5183 70.4898 24.9756 80.1684C9.4402 89.8424 -0.268555 103.272 -0.268555 118.189C-0.268555 133.107 9.4402 146.536 24.9756 156.21C40.5183 165.889 61.959 171.859 85.6156 171.859Z" fill="white" stroke="black"/>
<circle cx="119.871" cy="78.2488" r="2.73584" fill="black" stroke="black"/>
<circle cx="42.0576" cy="88" r="9.80322" fill="black" stroke="black"/>
<circle cx="132.711" cy="91.7893" r="8.125" fill="black" stroke="black"/>
<path d="M86.5872 76.9289C86.5872 76.9289 72.3835 76.9289 72.3835 69.3C72.3835 64.8524 77.2109 62.9977 81.2372 62.2243V34.1736H62.8705L59.15 46.7681L64.7389 48.79L62.4368 57.8302L56.7489 55.7131L54.2191 64.9508C52.5972 70.9931 57.1498 76.9289 63.406 76.9289H81.2372H86.5872Z" fill="white"/>
<path d="M72.3835 69.3C72.3835 76.9289 86.5872 76.9289 86.5872 76.9289H104.535C109.166 76.9289 112.453 72.4163 111.034 68.008L107.024 56.1637L101.621 57.8302L98.2402 48.79L103.999 46.7681L99.6038 34.1736H81.2372V62.2243C77.2109 62.9977 72.3835 64.8524 72.3835 69.3Z" fill="white"/>
<path d="M64.7389 48.79L59.15 46.7681L56.7489 55.7131L62.4368 57.8302L64.7389 48.79Z" fill="white"/>
<path d="M103.999 46.7681L98.2402 48.79L101.621 57.8302L107.024 56.1637L103.999 46.7681Z" fill="white"/>
<path d="M86.5872 76.9289C86.5872 76.9289 72.3835 76.9289 72.3835 69.3C72.3835 64.8524 77.2109 62.9977 81.2372 62.2243M86.5872 76.9289H104.535C109.166 76.9289 112.453 72.4163 111.034 68.008L107.024 56.1637M86.5872 76.9289H81.2372H63.406C57.1498 76.9289 52.5972 70.9931 54.2191 64.9508L56.7489 55.7131M81.2372 34.1736H62.8705L59.15 46.7681M81.2372 34.1736H99.6038L103.999 46.7681M81.2372 34.1736V62.2243M99.7381 61.671H86.5872C86.5872 61.671 84.1171 61.671 81.2372 62.2243M59.15 46.7681L64.7389 48.79L62.4368 57.8302L56.7489 55.7131M59.15 46.7681L56.7489 55.7131M103.999 46.7681L98.2402 48.79L101.621 57.8302L107.024 56.1637M103.999 46.7681L107.024 56.1637" stroke="black"/>
<circle cx="81.1603" cy="31.1115" r="20.8654" fill="white" stroke="black"/>
<path d="M72.1876 20.6994L74.1467 23.2165M72.9924 24.33L71.0255 23.2784M75.4685 22.4028L74.8414 20.3085" stroke="black" stroke-linecap="round" stroke-linejoin="round"/>
<path d="M85.1112 13.5686C85.2018 13.2944 85.4978 13.145 85.7696 13.2424C89.1445 14.4514 92.1521 16.5078 94.5034 19.2139C94.6928 19.4319 94.6609 19.7619 94.4382 19.9458C94.2156 20.1297 93.8865 20.0977 93.6969 19.88C91.4715 17.3255 88.6295 15.3824 85.4416 14.2356C85.1699 14.1379 85.0207 13.8428 85.1112 13.5686Z" fill="black"/>
<path d="M95.3301 21.1083C95.5653 20.9408 95.8924 20.9955 96.0538 21.2349C96.7622 22.285 97.3738 23.3972 97.8809 24.558C97.9965 24.8226 97.8674 25.128 97.6 25.2369C97.3326 25.3459 97.0281 25.2171 96.9122 24.9527C96.436 23.8666 95.8635 22.8253 95.2016 21.8413C95.0404 21.6017 95.0948 21.2757 95.3301 21.1083Z" fill="black"/>
<path d="M81.6643 23.1665C72.7768 23.1665 70.4907 31.8482 72.1716 38.3346C72.1716 38.3346 73.8192 36.2059 74.5789 34.8419C75.3385 33.478 76.0621 31.3493 76.0621 31.3493C76.0621 31.3493 77.8357 31.1768 78.9296 30.6507C80.0235 30.1246 81.6643 28.6549 81.6643 28.6549C81.6643 28.6549 82.8824 30.1246 83.8737 30.6507C84.8651 31.1768 86.7413 31.3493 86.7413 31.3493C86.7413 31.3493 87.0803 33.478 87.7301 34.8419C88.3799 36.2059 90.0692 38.3346 90.0692 38.3346C91.6172 31.948 90.5519 23.1665 81.6643 23.1665Z" fill="black"/>
<path d="M90.0692 38.3346C88.5211 44.7211 85.8513 48.7127 81.6643 48.7127C77.4773 48.7127 73.8525 44.8209 72.1716 38.3346M90.0692 38.3346C91.6172 31.948 90.5519 23.1665 81.6643 23.1665C72.7768 23.1665 70.4907 31.8482 72.1716 38.3346M90.0692 38.3346C90.0692 38.3346 88.3799 36.2059 87.7301 34.8419C87.0803 33.478 86.7413 31.3493 86.7413 31.3493C86.7413 31.3493 84.8651 31.1768 83.8737 30.6507C82.8824 30.1246 81.6643 28.6549 81.6643 28.6549C81.6643 28.6549 80.0235 30.1246 78.9296 30.6507C77.8357 31.1768 76.0621 31.3493 76.0621 31.3493C76.0621 31.3493 75.3385 33.478 74.5789 34.8419C73.8192 36.2059 72.1716 38.3346 72.1716 38.3346" stroke="black"/>
<circle cx="78.8443" cy="40.7292" r="0.798319" fill="black"/>
<circle cx="83.4761" cy="40.7295" r="0.798319" fill="black"/>
<path d="M86.0724 55.7266V58.9161M84.4776 59.086L83.5713 57.048M87.6153 59.086L88.4068 57.048" stroke="black" stroke-linecap="round" stroke-linejoin="round"/>
<path d="M85.9052 83.1643L85.9052 79.9747M87.5 79.8049L88.4063 81.8428M84.3623 79.8049L83.5708 81.8428" stroke="black" stroke-linecap="round" stroke-linejoin="round"/>
<path d="M84.1797 78.1448V60.7461H88.2068V78.1448H84.1797Z" fill="#EB279D" stroke="black" stroke-linecap="round" stroke-linejoin="round"/>
<circle cx="26.2925" cy="47.7033" r="8.16891" transform="rotate(-30 26.2925 47.7033)" fill="white" stroke="black"/>
<path d="M37.8267 41.5427L37.8271 41.5435C37.8273 41.544 37.8278 41.5452 37.8283 41.5472C37.8293 41.551 37.8311 41.5594 37.8316 41.5739C37.8326 41.604 37.8279 41.6564 37.8036 41.7356C37.7537 41.8985 37.6381 42.122 37.4339 42.4059C37.0274 42.9707 36.3401 43.6792 35.4058 44.4855C33.5435 46.0926 30.7781 48.0219 27.5518 49.8847C24.3254 51.7474 21.2719 53.1776 18.9489 53.9868C17.7835 54.3928 16.8263 54.6339 16.1339 54.7034C15.7859 54.7384 15.5346 54.7268 15.3686 54.6885C15.2878 54.6699 15.2401 54.6478 15.2145 54.6319C15.2022 54.6242 15.1958 54.6185 15.193 54.6157C15.1916 54.6142 15.1908 54.6133 15.1904 54.6128L15.1899 54.6121L15.1895 54.6113C15.1893 54.6108 15.1889 54.6096 15.1884 54.6076C15.1873 54.6038 15.1855 54.5954 15.1851 54.5809C15.184 54.5508 15.1888 54.4984 15.2131 54.4192C15.263 54.2563 15.3785 54.0328 15.5828 53.7489C15.9893 53.1841 16.6766 52.4756 17.6109 51.6693C19.4732 50.0622 22.2385 48.1329 25.4649 46.2702C28.6913 44.4074 31.7448 42.9772 34.0677 42.168C35.2332 41.762 36.1904 41.521 36.8828 41.4514C37.2308 41.4164 37.4821 41.4281 37.6481 41.4663C37.7289 41.4849 37.7766 41.507 37.8022 41.5229C37.8145 41.5306 37.8209 41.5363 37.8237 41.5391C37.8251 41.5406 37.8259 41.5415 37.8262 41.542L37.8267 41.5427Z" stroke="black"/>
<path d="M39.1324 44.6949L39.1325 44.6958C39.1326 44.6963 39.1327 44.6976 39.1327 44.6996C39.1327 44.7036 39.1323 44.7122 39.129 44.7262C39.1222 44.7556 39.1041 44.805 39.0601 44.8753C38.9697 45.0197 38.8003 45.2056 38.5295 45.427C37.9907 45.8674 37.1434 46.3738 36.0323 46.9108C33.8175 47.9811 30.647 49.129 27.0485 50.0932C23.4499 51.0575 20.1303 51.6486 17.677 51.8291C16.4462 51.9196 15.4593 51.9047 14.7724 51.7926C14.4273 51.7364 14.1876 51.6601 14.0371 51.5801C13.9639 51.5413 13.9235 51.5076 13.9029 51.4856C13.893 51.475 13.8883 51.4678 13.8863 51.4644C13.8853 51.4626 13.8848 51.4615 13.8846 51.4609L13.8843 51.4601L13.8841 51.4592C13.8841 51.4587 13.8839 51.4574 13.8839 51.4554C13.8839 51.4514 13.8844 51.4428 13.8876 51.4288C13.8945 51.3994 13.9126 51.35 13.9566 51.2797C14.0469 51.1353 14.2164 50.9494 14.4872 50.728C15.026 50.2876 15.8733 49.7812 16.9844 49.2442C19.1992 48.1739 22.3696 47.026 25.9682 46.0618C29.5668 45.0975 32.8864 44.5064 35.3396 44.3259C36.5704 44.2354 37.5574 44.2503 38.2442 44.3624C38.5894 44.4186 38.8291 44.4949 38.9796 44.5749C39.0528 44.6137 39.0932 44.6474 39.1138 44.6694C39.1237 44.68 39.1284 44.6872 39.1303 44.6906C39.1314 44.6924 39.1319 44.6935 39.1321 44.694L39.1324 44.6949Z" stroke="black"/>
<path d="M33.4263 44.8888C33.0454 43.9235 32.4726 43.0455 31.7425 42.308C31.0125 41.5705 30.1403 40.9889 29.1789 40.5983C28.2174 40.2077 27.1867 40.0163 26.1492 40.0357C25.1116 40.0551 24.0888 40.2848 23.1426 40.7111C22.1965 41.1373 21.3466 41.7511 20.6446 42.5154C19.9426 43.2796 19.403 44.1784 19.0585 45.1573C18.714 46.1362 18.5717 47.1748 18.6403 48.2103C18.7089 49.2457 18.987 50.2565 19.4576 51.1814L26.2925 47.7033L33.4263 44.8888Z" fill="white"/>
<path d="M120.729 33.5615L121.539 35.1291L123.107 35.9395L121.539 36.75L120.729 38.3176L119.918 36.75L118.351 35.9395L119.918 35.1291L120.729 33.5615Z" fill="black" stroke="black"/>
<path d="M42.0581 14.5095L42.8686 16.0771L44.4361 16.8875L42.8686 17.698L42.0581 19.2656L41.2476 17.698L39.6801 16.8875L41.2476 16.0771L42.0581 14.5095Z" fill="black" stroke="black"/>
<path d="M144.672 67.3727L133.962 62.6723L133.139 64.6801L143.849 69.3805L144.672 67.3727Z" fill="white"/>
<path d="M147.306 46.9508C141.756 44.5148 137.234 54.1132 135.275 59.2123L146.428 64.1067C148.854 59.2128 152.857 49.3868 147.306 46.9508Z" fill="white"/>
<path d="M144.672 67.3727L133.962 62.6723M144.672 67.3727L143.849 69.3805L133.139 64.6801L133.962 62.6723M144.672 67.3727C144.672 67.3727 145.587 65.8015 146.428 64.1067M133.962 62.6723C133.962 62.6723 134.597 60.9781 135.275 59.2123M135.275 59.2123C137.234 54.1132 141.756 44.5148 147.306 46.9508C152.857 49.3868 148.854 59.2128 146.428 64.1067M135.275 59.2123L146.428 64.1067" stroke="black"/>
<ellipse cx="3.222" cy="3.22201" rx="3.222" ry="3.22201" transform="matrix(0.915698 0.401867 -0.401866 0.915699 142.646 49.55)" stroke="black"/>
<ellipse cx="2.39661" cy="2.39662" rx="2.39661" ry="2.39662" transform="matrix(0.915698 0.401867 -0.401866 0.915698 143.071 50.6377)" fill="#FFF2F8" stroke="black"/>
<path d="M132.675 68.8897L134.793 60.6923L130.195 67.8013L132.675 68.8897Z" fill="black" stroke="black"/>
<path d="M143.572 73.672L145.691 65.4746L141.092 72.5837L143.572 73.672Z" fill="black" stroke="black"/>
<path d="M137.449 72.7645L139.334 65.1167L134.981 71.6815L137.449 72.7645Z" fill="black" stroke="black"/>
</g>
<defs>
<clipPath id="clip0_1_2858">
<rect width="175" height="88" fill="white"/>
</clipPath>
</defs>
</svg>
